<svg width="125" height="125" viewBox="0 0 75 75" fill="none" xmlns="http://www.w3.org/2000/svg">
<g clip-path="url(#clip0_14_179)">
<circle cx="37.5" cy="37.5" r="36" fill="#C27FA4" stroke="#C27FA4" stroke-width="3"/>
<path d="M21.6159 51.4051L19.8237 50.6921C19.6957 51.0143 19.6569 51.3651 19.7116 51.7075C19.7662 52.0498 19.9122 52.3711 20.1341 52.6375C20.3561 52.9038 20.6458 53.1054 20.9727 53.2208C21.2996 53.3363 21.6516 53.3614 21.9916 53.2936L21.6159 51.4051ZM30.6844 49.6014L31.5978 47.9037L30.9869 47.5762L30.3086 47.711L30.6844 49.6014ZM24.7453 43.5371L26.5374 44.2501L26.8515 43.4524L26.4739 42.6835L24.7453 43.5371ZM50.521 37.9161C50.521 44.1711 45.0232 49.4781 37.9376 49.4781V53.3321C46.8809 53.3321 54.375 46.5606 54.375 37.9161H50.521ZM25.3562 37.9161C25.3562 31.661 30.8559 26.354 37.9395 26.354V22.5C28.9963 22.5 21.5002 29.2715 21.5002 37.9161H25.3562ZM37.9395 26.354C45.0232 26.354 50.521 31.661 50.521 37.9161H54.375C54.375 29.2715 46.8828 22.5 37.9395 22.5V26.354ZM37.9376 49.4781C35.6156 49.4781 33.4535 48.9 31.5978 47.9037L29.771 51.2972C32.2825 52.6436 35.088 53.343 37.9376 53.3321V49.4781ZM21.9916 53.2936L31.0601 51.4899L30.3086 47.711L21.2401 49.5147L21.9916 53.2955V53.2936ZM26.4739 42.6835C25.7402 41.2011 25.3591 39.57 25.3562 37.9161H21.5002C21.5002 40.2285 22.0437 42.4214 23.0149 44.3908L26.4739 42.6835ZM22.9551 42.8242L19.8237 50.694L23.4041 52.1162L26.5336 44.2482L22.9532 42.8242H22.9551Z" fill="#F2F2F2"/>
<path d="M31.2507 39.8431C32.315 39.8431 33.1777 38.9803 33.1777 37.9161C33.1777 36.8518 32.315 35.9891 31.2507 35.9891C30.1865 35.9891 29.3237 36.8518 29.3237 37.9161C29.3237 38.9803 30.1865 39.8431 31.2507 39.8431Z" fill="#F2F2F2"/>
<path d="M37.9954 39.8431C39.0596 39.8431 39.9224 38.9803 39.9224 37.9161C39.9224 36.8518 39.0596 35.9891 37.9954 35.9891C36.9311 35.9891 36.0684 36.8518 36.0684 37.9161C36.0684 38.9803 36.9311 39.8431 37.9954 39.8431Z" fill="#F2F2F2"/>
<path d="M44.74 39.8431C45.8043 39.8431 46.667 38.9803 46.667 37.9161C46.667 36.8518 45.8043 35.9891 44.74 35.9891C43.6757 35.9891 42.813 36.8518 42.813 37.9161C42.813 38.9803 43.6757 39.8431 44.74 39.8431Z" fill="#F2F2F2"/>
</g>
<defs>
<clipPath id="clip0_14_179">
<rect width="75" height="75" fill="white"/>
</clipPath>
</defs>
</svg>
