<svg width="62" height="49" viewBox="0 0 62 49" fill="none" xmlns="http://www.w3.org/2000/svg">
<path d="M26.7539 17.7348C26.1256 17.7348 25.5915 17.5156 25.1517 17.0771C24.7119 16.6386 24.492 16.1062 24.492 15.4798C24.492 14.8534 24.7119 14.321 25.1517 13.8825C25.5915 13.444 26.1256 13.2247 26.7539 13.2247C27.3822 13.2247 27.9163 13.444 28.3561 13.8825C28.7959 14.321 29.0158 14.8534 29.0158 15.4798C29.0158 16.1062 28.7959 16.6386 28.3561 17.0771C27.9163 17.5156 27.3822 17.7348 26.7539 17.7348ZM26.7539 19.9899C27.7215 19.9899 28.5949 19.7143 29.374 19.163C30.1531 18.6118 30.6997 17.8852 31.0138 16.9832H31.2777L32.2579 17.9604C32.3333 18.0355 32.415 18.0886 32.5029 18.1197C32.5909 18.1508 32.6851 18.1666 32.7857 18.1671C32.8862 18.1676 32.9804 18.152 33.0684 18.1205C33.1564 18.0889 33.238 18.0355 33.3134 17.9604L34.2936 16.9832L35.613 18.0167C35.6884 18.0794 35.7734 18.1262 35.8679 18.1573C35.9624 18.1884 36.0596 18.1979 36.1597 18.1859C36.2597 18.1738 36.3509 18.1458 36.4334 18.1017C36.5158 18.0576 36.5879 17.9979 36.6497 17.9228L38.3462 15.9872C38.409 15.912 38.4563 15.8306 38.4879 15.7429C38.5196 15.6552 38.5352 15.5612 38.5347 15.461C38.5342 15.3608 38.5153 15.2701 38.4781 15.1889C38.4409 15.1077 38.3907 15.0356 38.3273 14.9724L37.5545 14.2019C37.4791 14.1268 37.3944 14.0704 37.3004 14.0328C37.2064 13.9952 37.1089 13.9764 37.0079 13.9764H31.0138C30.7122 13.1245 30.1812 12.4104 29.4207 11.8341C28.6602 11.2578 27.7713 10.9697 26.7539 10.9697C25.4973 10.9697 24.4292 11.4082 23.5495 12.2851C22.6699 13.1621 22.2301 14.227 22.2301 15.4798C22.2301 16.7326 22.6699 17.7975 23.5495 18.6745C24.4292 19.5514 25.4973 19.9899 26.7539 19.9899Z" fill="#7FC29B"/>
<path d="M41.4217 27.9861L31.0646 24.5442C30.8874 24.4853 30.6959 24.4853 30.5187 24.5442L20.1616 27.9861C19.9897 28.0432 19.8402 28.1528 19.7343 28.2993C19.6284 28.4458 19.5714 28.6219 19.5714 28.8025V37.4073C19.5714 37.6355 19.6623 37.8543 19.8242 38.0157C19.9861 38.1771 20.2056 38.2677 20.4345 38.2677C20.6634 38.2677 20.8829 38.1771 21.0448 38.0157C21.2067 37.8543 21.2976 37.6355 21.2976 37.4073V29.9964L24.9215 31.2C23.9587 32.7508 23.6525 34.6191 24.0702 36.3948C24.4879 38.1705 25.5954 39.7083 27.1494 40.6706C25.2074 41.43 23.5287 42.8035 22.3009 44.6815C22.2371 44.7762 22.1927 44.8825 22.1705 44.9943C22.1482 45.1062 22.1484 45.2213 22.1712 45.3331C22.194 45.4448 22.2388 45.551 22.303 45.6453C22.3673 45.7397 22.4497 45.8203 22.5455 45.8826C22.6413 45.9449 22.7486 45.9876 22.8611 46.0082C22.9736 46.0288 23.0891 46.0269 23.2009 46.0026C23.3126 45.9783 23.4184 45.9322 23.5121 45.8667C23.6058 45.8013 23.6855 45.718 23.7466 45.6216C25.3725 43.1348 27.9402 41.7097 30.7916 41.7097C33.6431 41.7097 36.2108 43.1348 37.8367 45.6216C37.9633 45.8092 38.1588 45.9396 38.381 45.9845C38.6033 46.0295 38.8343 45.9855 39.0243 45.862C39.2142 45.7385 39.3478 45.5454 39.3961 45.3245C39.4443 45.1036 39.4035 44.8727 39.2823 44.6815C38.0546 42.8035 36.3694 41.43 34.4339 40.6706C35.9864 39.7083 37.0928 38.1715 37.5105 36.3971C37.9281 34.6228 37.6229 32.7557 36.6618 31.2054L41.4217 29.6242C41.5936 29.5671 41.7432 29.4576 41.8491 29.311C41.9551 29.1645 42.0121 28.9885 42.0121 28.8078C42.0121 28.6272 41.9551 28.4512 41.8491 28.3046C41.7432 28.1581 41.5936 28.0485 41.4217 27.9915V27.9861ZM35.9702 34.8258C35.9705 35.642 35.7766 36.4467 35.4045 37.1738C35.0324 37.9008 34.4927 38.5295 33.8297 39.0084C33.1666 39.4872 32.3992 39.8025 31.5903 39.9284C30.7814 40.0543 29.9541 39.9872 29.1762 39.7325C28.3984 39.4779 27.6921 39.0431 27.1155 38.4636C26.5389 37.8842 26.1082 37.1767 25.859 36.3993C25.6097 35.6218 25.5489 34.7965 25.6815 33.991C25.8141 33.1856 26.1363 32.423 26.6218 31.7657L30.5187 33.0565C30.6959 33.1153 30.8874 33.1153 31.0646 33.0565L34.9615 31.7657C35.6171 32.6521 35.9707 33.7245 35.9702 34.8258Z" fill="#7FC29B"/>
<path d="M1 20.2273L31 1L61 20.2273M54.5714 15.9545V48H7.42857V15.9545M24.5714 48H37.4286H31H24.5714Z" stroke="#7FC29B" stroke-width="2" stroke-linejoin="round"/>
</svg>
