<svg width="190" height="90" viewBox="0 0 190 90" fill="none" xmlns="http://www.w3.org/2000/svg">
<rect x="1.5" y="1.5" width="187" height="87" rx="43.5" stroke="#7FC29B" stroke-width="3"/>
<circle cx="146.5" cy="44.5" r="30.5" fill="#7FC29B"/>
<path d="M29.7917 61.5C29.0007 61.5 28.3381 61.232 27.804 60.696C27.2699 60.16 27.0019 59.4974 27 58.7083C26.9981 57.9192 27.2661 57.2567 27.804 56.7207C28.3419 56.1847 29.0044 55.9167 29.7917 55.9167H74.4583C75.2493 55.9167 75.9128 56.1847 76.4488 56.7207C76.9848 57.2567 77.2519 57.9192 77.25 58.7083C77.2481 59.4974 76.9802 60.1609 76.446 60.6988C75.9119 61.2367 75.2493 61.5037 74.4583 61.5H29.7917ZM29.7917 47.5417C29.0007 47.5417 28.3381 47.2737 27.804 46.7377C27.2699 46.2017 27.0019 45.5391 27 44.75C26.9981 43.9609 27.2661 43.2983 27.804 42.7623C28.3419 42.2263 29.0044 41.9583 29.7917 41.9583H74.4583C75.2493 41.9583 75.9128 42.2263 76.4488 42.7623C76.9848 43.2983 77.2519 43.9609 77.25 44.75C77.2481 45.5391 76.9802 46.2026 76.446 46.7405C75.9119 47.2783 75.2493 47.5454 74.4583 47.5417H29.7917ZM29.7917 33.5833C29.0007 33.5833 28.3381 33.3153 27.804 32.7793C27.2699 32.2433 27.0019 31.5808 27 30.7917C26.9981 30.0026 27.2661 29.34 27.804 28.804C28.3419 28.268 29.0044 28 29.7917 28H74.4583C75.2493 28 75.9128 28.268 76.4488 28.804C76.9848 29.34 77.2519 30.0026 77.25 30.7917C77.2481 31.5808 76.9802 32.2443 76.446 32.7821C75.9119 33.32 75.2493 33.5871 74.4583 33.5833H29.7917Z" fill="#7FC29B"/>
<path d="M163.106 33.3284L147.413 28.0675C147.145 27.9775 146.855 27.9775 146.586 28.0675L130.894 33.3284C130.634 33.4157 130.407 33.5831 130.247 33.8071C130.086 34.0311 130 34.3001 130 34.5762V47.7283C130 48.0771 130.138 48.4117 130.383 48.6583C130.628 48.905 130.961 49.0435 131.308 49.0435C131.654 49.0435 131.987 48.905 132.232 48.6583C132.478 48.4117 132.615 48.0771 132.615 47.7283V36.401L138.106 38.2407C136.647 40.611 136.183 43.4668 136.816 46.1808C137.449 48.8948 139.127 51.2454 141.481 52.7163C138.539 53.8769 135.996 55.9763 134.136 58.8468C134.039 58.9914 133.972 59.1539 133.938 59.3249C133.904 59.4959 133.904 59.6719 133.939 59.8427C133.973 60.0135 134.041 60.1757 134.139 60.3199C134.236 60.4641 134.361 60.5874 134.506 60.6826C134.651 60.7778 134.814 60.8431 134.984 60.8746C135.155 60.9061 135.33 60.9032 135.499 60.866C135.668 60.8289 135.829 60.7583 135.971 60.6583C136.113 60.5584 136.233 60.431 136.326 60.2837C138.789 56.4827 142.68 54.3044 147 54.3044C151.32 54.3044 155.21 56.4827 157.674 60.2837C157.866 60.5704 158.162 60.7696 158.499 60.8384C158.835 60.9071 159.185 60.8399 159.473 60.6511C159.761 60.4623 159.963 60.1672 160.036 59.8296C160.11 59.4919 160.048 59.1389 159.864 58.8468C158.004 55.9763 155.451 53.8769 152.518 52.7163C154.871 51.2454 156.547 48.8964 157.18 46.1844C157.812 43.4723 157.35 40.6186 155.894 38.2489L163.106 35.8322C163.366 35.7449 163.593 35.5775 163.753 35.3535C163.914 35.1296 164 34.8605 164 34.5844C164 34.3083 163.914 34.0392 163.753 33.8153C163.593 33.5913 163.366 33.4238 163.106 33.3366V33.3284ZM154.846 43.7827C154.846 45.0302 154.553 46.2601 153.989 47.3714C153.425 48.4827 152.607 49.4437 151.603 50.1756C150.598 50.9075 149.435 51.3894 148.21 51.5818C146.984 51.7742 145.731 51.6716 144.552 51.2824C143.374 50.8932 142.304 50.2286 141.43 49.3429C140.556 48.4573 139.904 47.376 139.526 46.1876C139.149 44.9993 139.056 43.7378 139.257 42.5067C139.458 41.2756 139.947 40.11 140.682 39.1054L146.586 41.0783C146.855 41.1683 147.145 41.1683 147.413 41.0783L153.318 39.1054C154.311 40.4602 154.847 42.0994 154.846 43.7827ZM147 38.4511L135.443 34.5762L147 30.7012L158.556 34.5762L147 38.4511Z" fill="#F2F2F2"/>
</svg>
